<?xml version="1.0" encoding="UTF-8" standalone="no" ?>
<!DOCTYPE svg PUBLIC "-//W3C//DTD SVG 1.1//EN" "http://www.w3.org/Graphics/SVG/1.1/DTD/svg11.dtd">
<svg xmlns="http://www.w3.org/2000/svg" xmlns:xlink="http://www.w3.org/1999/xlink" version="1.1" width="1080" height="1080" viewBox="0 0 1080 1080" xml:space="preserve">
<desc>Created with Fabric.js 5.2.4</desc>
<defs>
</defs>
<g transform="matrix(1 0 0 1 540 540)" id="36632cf9-7599-442e-8ea2-5ca518e02d94"  >
<rect style="stroke: none; stroke-width: 1; stroke-dasharray: none; stroke-linecap: butt; stroke-dashoffset: 0; stroke-linejoin: miter; stroke-miterlimit: 4; fill: rgb(255,255,255); fill-rule: nonzero; opacity: 1; visibility: hidden;" vector-effect="non-scaling-stroke"  x="-540" y="-540" rx="0" ry="0" width="1080" height="1080" />
</g>
<g transform="matrix(1 0 0 1 540 540)" id="1bd2474a-edf4-4d55-9095-f310602ee0d3"  >
</g>
<g transform="matrix(1.76 0 0 1.76 539.7 539.37)" id="path909"  >
<path style="stroke: rgb(0,0,0); stroke-width: 0; stroke-dasharray: none; stroke-linecap: butt; stroke-dashoffset: 0; stroke-linejoin: miter; stroke-miterlimit: 4; fill: rgb(113,201,134); fill-rule: nonzero; opacity: 1;" vector-effect="non-scaling-stroke"  transform=" translate(-400, -400)" d="M 400 100 C 234.31457505076196 100 100 234.31457505076196 100 400 C 100 565.685424949238 234.31457505076196 700 400 700 C 565.685424949238 700 700 565.685424949238 700 400 C 700 234.31457505076196 565.685424949238 100 400 100 z M 400 160 C 532.5484 160 640 267.45169 640 400 C 640 532.54832 532.5484 640 400 640 C 267.4516 640 160 532.54832 160 400 C 160 267.45169 267.4516 160 400 160 z M 400 180 C 278.49736 180 180 278.49731 180 400 C 180 442.41013 192.01054 482.00544 212.80078 515.59961 C 237.01582 512.36429 260.89197 506.621 283.95117 498.55078 C 279.79365 493.98284 275.90828 489.16087 272.375 484.09961 C 256.54628 461.42496 247.30761 434.34003 245.09961 406.77539 C 240.68169 351.64614 264.76613 296.25553 303.72461 257 C 325.82669 234.72922 353.38456 216.79104 384.25 211.15039 C 399.68296 208.32999 415.77703 208.65187 430.90039 212.82422 C 446.02375 216.99655 460.12948 225.09469 470.875 236.52539 C 481.87396 248.22584 489.14258 263.20629 492.42578 278.92578 C 495.70802 294.64525 495.11225 311.05484 491.59961 326.72461 C 484.57433 358.06414 466.32869 385.82395 445.47461 410.25 C 413.70341 447.4632 374.89092 478.54066 331.875 501.84961 C 348.10644 510.8487 366.41498 516.01126 384.94922 517.07422 C 409.61858 518.48895 434.39647 512.72766 456.92383 502.57422 C 479.45119 492.42068 499.84643 478.00039 518.52539 461.82422 C 557.40851 428.15112 589.33683 386.48106 611.77539 340.19922 C 585.72339 247.75801 500.77384 180 400 180 z M 401.39844 224.44922 C 385.93332 224.42827 370.61622 228.93133 357.07422 236.40039 C 329.99046 251.33845 310.64306 277.36831 296.44922 304.84961 C 284.20754 328.55148 275.09403 354.1444 272.54883 380.69922 C 270.00363 407.25409 274.33034 434.84645 287.44922 458.07422 C 293.72762 469.19047 301.96438 479.16467 311.57422 487.57422 C 316.18654 485.51675 320.77819 483.37692 325.29883 481.125 C 369.46315 459.12365 409.17339 427.69455 439.04883 388.42578 C 455.92155 366.24783 469.8875 340.85962 473.07422 313.17578 C 474.66758 299.33386 473.46851 285.07664 468.79883 271.94922 C 464.12891 258.82172 455.89072 246.87344 444.77344 238.47461 C 432.4336 229.15241 416.86356 224.46832 401.39844 224.44922 z M 618.02344 370.55273 C 597.37279 409.45116 570.24701 444.89913 538.07422 474.97461 C 511.06678 500.22185 480.085 521.93092 445.14844 534.02539 C 410.21164 546.11985 371.02088 548.03519 336.5 534.80078 C 324.51296 530.20516 313.23448 523.82719 303.02344 516.05078 C 279.67384 526.39354 255.33079 534.51889 230.42383 540.17578 C 270.77671 588.9368 331.76296 620 400 620 C 521.50288 620 620 521.50268 620 400 C 620 390.01397 619.31207 380.18615 618.02344 370.55273 z" stroke-linecap="round" />
</g>
<g transform="matrix(NaN NaN NaN NaN 0 0)"  >
<g style=""   >
</g>
</g>
</svg>